<svg xmlns="http://www.w3.org/2000/svg" xml:space="preserve" width="1080" height="1080" style="shape-rendering:geometricPrecision;text-rendering:geometricPrecision;image-rendering:optimizeQuality;fill-rule:evenodd;clip-rule:evenodd" viewBox="0 0 1080 1079.97"><path d="M1077.57 522.51 924.31 163.72a29.93 29.93 0 0 0-16.49-16.17L545.72 2.18a30.34 30.34 0 0 0-23.15.23L163.73 155.68a29.9 29.9 0 0 0-16.17 16.49L2.21 534.27a30.04 30.04 0 0 0 .22 23.14L155.7 916.26a29.93 29.93 0 0 0 16.49 16.17l362.1 145.35a30.2 30.2 0 0 0 10.79 2.19h.92c3.89-.06 7.76-.85 11.47-2.47l358.8-153.26a29.93 29.93 0 0 0 16.17-16.49l145.36-362.1a30.09 30.09 0 0 0-.23-23.14zM505.71 678.68h209.02v97.12H365.27v-88.28L502.79 535.3 365.93 392.69v-88.52h348.8v97.11H510.17L636.99 534.1 505.71 678.68z" style="fill:#FF5537;fill-rule:nonzero"/></svg>